<svg xmlns="http://www.w3.org/2000/svg" xml:space="preserve" viewBox="0 0 500 500"><text fill="#22F5EC" font-family="'Poppins-Bold'" font-size="83.2" transform="translate(111 194)">ERROR</text><text fill="#E60733" font-family="'Poppins-Bold'" font-size="83.2" transform="translate(119 194)">ERROR</text><text fill="#1D262D" font-family="'Poppins-Bold'" font-size="83.2" transform="translate(115 194)">ERROR</text><text fill="#22F5EC" font-family="'Poppins-Light'" font-size="31.7" transform="translate(114 359)">PAGE NOT FOUND</text><text fill="#E60733" font-family="'Poppins-Light'" font-size="31.7" transform="translate(116 359)">PAGE NOT FOUND</text><text fill="#1D262D" font-family="'Poppins-Light'" font-size="31.7" transform="translate(115 359)">PAGE NOT FOUND</text><g fill="#59FFD1"><g opacity=".1"><path d="M200 290v-17h-9v-11h-6v-7h6v-9h-6v-7h6v-6h-21v-1h21v-1h-21v8h-1v3h-4v-3h-5v-4h-2v-7h2v-5h10v5h21v-11h-34l-9 13h9v1h-10l-1 2h9v2h-11l-10 14h18v5h-22l-14 21v7h36v2h-36v5h63v1h-63v4h11v5h-11v2h42v4h23v7h-23v4h33v-15h9v-6h-6v-5h6zm-74-11h-4v-4h4v4zm10-3h-7v-7h7v7zm35-2h-12v-1h-9l9-14v-5h12v20zm10-20h-4v-4h4v4zm109 21a95 95 0 0 0-4-36h-31v-5h29c-6-14-18-21-35-21-10 0-18 3-25 8h40v2h-43l-5 6h10v6h-13a70 70 0 0 0-5 35h10v15h-8l1 5h29v5h-27l3 4h43v2h-42c7 9 18 14 32 14 23 0 37-13 40-38h-21v-2h22zm-23-50h4v4h-4v-4zm-2 54v10h-16v-5c-8 0-10-7-10-20 0-12 2-18 8-20v-3h19v13h-8v8h11v4h-11l-1 13h8zm94-56h14v1h-14z"/><path d="M373 273v-19h-4v-7h4v-9h-3v-7h3v-5h-15v19h-12v-11h-1v-6h-3v-7h3v-4h-6l-4 5h6v2h-7l-1 1h6v3h-8l-5 7h18v6h-22l-7 9h15v23h-31l-1 2h38v2h-38v4h65v2h-65v5h26v9h-26v4h42v7h15v3h-15v5h33v-15h9v-28h-9zm-19 3h-15v-3h-7l7-12v-6h15v21zm12-30h-5v-4h5v4zm-7-29h14v4h-14zm-257 52h10v7h-10zm91-34h7v7h-7zm9 4h4v4h-4zm94 13h3v7h-3zm81-24h7v7h-7zm9 4h4v4h-4zm-81 14h4v4h-4zm-21-21h4v4h-4z"/></g><g opacity=".2"><path d="M201 290v-17h-10v-11h-6v-7h6v-9h-5v-7h5v-6h-20v-1h20v-1h-21v11h-5v-3h-5v-4h-1v-7h1v-5h10v5h21v-11h-34l-9 13h10v1h-11l-1 2h10v2h-12l-9 14h17v5h-21l-15 21v7h36v2h-36v5h64v1h-64v4h11v5h-11v2h42v4h23v7h-23v4h33v-15h10v-6h-7v-5h7zm-75-11h-4v-4h4v4zm11-3h-7v-7h7v7zm34-2h-12v-1h-9l9-14v-5h12v20zm11-20h-5v-4h5v4zm108 21a95 95 0 0 0-4-36h-30v-5h28c-6-14-18-21-35-21-10 0-18 3-24 8h39v2h-42l-5 6h9v6h-13a70 70 0 0 0-5 35h10v15h-8l2 5h28v5h-26l2 4h44v2h-42c7 9 17 14 31 14 23 0 37-13 41-38h-21v-2h21zm-23-50h4v4h-4v-4zm-2 54v10h-16v-5c-8 0-9-7-9-20 0-11 1-18 7-19v-4h19v13h-8v8h11v4h-11l-1 13h8zm94-62h15v4h-15zm0 6h15v1h-15z"/><path d="M373 273v-19h-4v-7h4v-9h-3v-7h3v-5h-15v19h-12v-11h-1v-6h-2v-7h2v-4h-6l-4 5h7v2h-8l-1 1h7v3h-9l-5 7h18v6h-22l-7 9h15v23h-31l-1 2h38v2h-38v4h66v2h-66v5h26v9h-26v4h42v7h15v3h-15v5h33v-15h10v-28h-10zm-19 3h-15v-3h-7l7-11v-7h15v21zm12-30h-4v-4h4v4zm-263 23h10v7h-10zm90-34h7v7h-7zm9 4h4v4h-4zm94 13h3v7h-3zm81-24h7v7h-7zm9 4h4v4h-4zm-81 14h4v4h-4zm-21-21h4v4h-4z"/></g><g opacity=".3"><path d="M201 290v-17h-10v-11h-6v-7h6v-9h-5v-7h5v-6h-20v-1h20v-1h-21v11h-5v-3h-5v-4h-1v-7h1v-5h10v5h21v-11h-34l-9 13h10v1h-11l-1 2h10v2h-12l-9 14h17v5h-21l-14 21v7h35v2h-35v5h63v1h-63v4h10v5h-10v2h41v4h23v7h-23v4h33v-15h10v-6h-7v-5h7zm-75-11h-4v-4h4v4zm11-3h-7v-7h7v7zm34-2h-12v-1h-8l8-13v-6h12v20zm11-20h-4v-4h4v4zm108 21a95 95 0 0 0-3-36h-31v-5h29c-7-14-19-21-36-21-10 0-18 3-24 8h40v2h-43l-5 6h9v6h-13a70 70 0 0 0-5 35h10v15h-8l2 5h29v5h-27l2 4h44v2h-42c7 9 17 14 31 14 23 0 38-13 41-38h-21v-2h21zm-23-50h4v4h-4v-4zm-2 54v10h-16v-5c-8 0-9-7-9-20 0-11 1-18 7-19v-4h19v13h-8l1 8h10v4h-10l-2 13h8zm94-56h15v1h-15zm0-6h15v4h-15z"/><path d="M373 273v-19h-4v-7h4v-9h-3v-7h3v-5h-15v19h-12v-11h-1v-6h-2v-7h2v-4h-6l-4 5h7v2h-8l-1 1h7v3h-8l-5 7h17v6h-22l-6 9h14v23h-30l-1 2h37v2h-37v4h65v2h-65v5h25v9h-25v4h41v7h15v3h-15v5h33v-15h10v-28h-10zm-19 3h-15v-3h-6l6-11v-7h15v21zm12-30h-4v-4h4v4zm-263 23h10v7h-10zm90-34h7v7h-7zm9 4h4v4h-4zm94 13h2v7h-2zm81-24h7v7h-7zm9 4h4v4h-4zm-81 14h4v4h-4zm-20-21h4v4h-4z"/></g><g opacity=".4"><path d="M201 290v-17h-10v-11h-6v-7h6v-9h-5v-7h5v-6h-20v-1h20v-1h-21v11h-4v-3h-6v-4h-1v-7h1v-5h10v5h21v-11h-34l-9 13h10v1h-11l-1 2h10v2h-11l-10 14h17v5h-21l-14 21v7h35v2h-35v5h63v1h-63v4h10v5h-10v2h42v4h22v7h-22v4h32v-15h10v-6h-7v-5h7zm-74-11h-5v-4h5v4zm10-3h-7v-7h7v7zm34-2h-12v-1h-8l8-13v-6h12v20zm11-20h-4v-4h4v4zm108 21a95 95 0 0 0-3-36h-31v-5h29c-7-14-19-21-36-21-9 0-18 3-24 8h40v2h-43l-5 6h9v6h-13a70 70 0 0 0-5 35h10v15h-8l2 5h29v5h-27l2 4h44v2h-42c7 9 18 14 31 14 24 0 38-13 41-38h-21v-2h21zm-23-50h5v4h-5v-4zm-2 54v10h-16v-5c-7 0-9-7-9-20 0-11 1-18 7-19v-4h19v13h-8l1 8h10v4h-10l-2 13h8zm94-56h15v1h-15zm0-6h15v4h-15z"/><path d="M373 273v-19h-3v-7h3v-9h-3v-7h3v-5h-15v19h-12v-11h-1v-6h-2v-7h2v-4h-6l-4 5h7v2h-7l-1 1h6v3h-8l-5 7h17v6h-22l-6 9h14v23h-30l-1 2h37v2h-37v4h65v2h-65v5h25v9h-25v4h42v7h14v3h-14v5h32v-15h10v-28h-10zm-19 3h-15v-3h-6l6-11v-7h15v21zm12-30h-4v-4h4v4zm-263 23h10v7h-10zm90-34h7v7h-7zm9 4h4v4h-4zm95 13h2v7h-2zm81-24h7v7h-7zm8 4h4v4h-4zm-81 14h4v4h-4zm-20-21h4v4h-4z"/></g><g opacity=".5"><path d="M201 290v-17h-9v-11h-6v-7h6v-9h-6v-7h6v-6h-21v-1h21v-1h-22v11h-4v-3h-6v-4h-1v-7h1v-5h10v5h22v-11h-34l-10 13h10v1h-10l-1 2h9v2h-11l-10 14h17v5h-21l-14 21v7h35v2h-35v5h63v1h-63v4h10v5h-10v2h42v4h22v7h-22v4h33v-15h9v-6h-7v-5h7zm-74-11h-5v-4h5v4zm10-3h-7v-7h7v7zm34-2h-12v-1h-8l8-13v-6h12v20zm11-20h-4v-4h4v4zm109 21a95 95 0 0 0-4-36h-31v-5h29c-7-14-19-21-35-21-10 0-18 3-25 8h40v2h-43l-5 6h9v6h-12a70 70 0 0 0-6 35h10v15h-7l1 5h29v5h-27l3 4h43v2h-42c7 9 18 14 32 14 23 0 37-13 40-38h-21v-2h22zm-24-50h5v4h-5v-4zm-2 54v10h-16v-5c-7 0-9-7-9-20 0-11 1-18 7-19v-4h19v13h-8l1 8h10v4h-10c0 5 0 10-2 13h8zm109-6v-19h-4v-7h4v-9h-4v-7h4v-5h-16v19h-12v-11h-1v-6h-2v-7h2v-4h-6l-3 5h6v2h-7l-1 1h6v3h-8l-5 7h17v6h-22l-6 9h14v23h-30l-1 2h38v2h-38v4h65v2h-65v5h25v9h-25v4h42v7h14v3h-14v5h33v-15h9v-28h-9zm-20 3h-15v-3h-6l6-10v-8h15v21zm12-30h-4v-4h4v4z"/><path d="M359 223h15v1h-15zm0-6h15v4h-15zm-256 52h10v7h-10zm91-34h7v7h-7zm8 4h4v4h-4zm95 13h2v7h-2zm81-24h7v7h-7zm9 4h4v4h-4zm-81 14h4v4h-4zm-21-21h4v4h-4z"/></g><g opacity=".6"><path d="M201 290v-17h-9v-11h-6v-7h6v-9h-6v-7h6v-6h-20v-1h20v-1h-22v11h-4v-3h-6v-4h-1v-7h1v-5h10v5h22v-11h-34l-9 13h9v1h-10l-1 2h9v2h-11l-9 14h16v5h-20l-15 21v7h36v2h-36v5h63v1h-63v4h10v5h-10v2h42v4h22v7h-22v4h33v-15h9v-6h-6v-5h6zm-74-11h-4v-4h4v4zm11-3h-7v-7h7v7zm33-2h-12v-1h-8l8-12v-7h12v20zm12-20h-5v-4h5v4zm108 21a95 95 0 0 0-4-36h-30v-5h28c-6-14-18-21-35-21-10 0-18 3-25 8h40v2h-43l-5 6h9v6h-12a70 70 0 0 0-5 35h9v15h-7l1 5h29v5h-26l2 4h44v2h-42c7 9 17 14 31 14 23 0 37-13 41-38h-22v-2h22zm-23-50h4v4h-4v-4zm-3 54v10h-16v-5c-7 0-9-7-9-20 0-11 2-18 7-19v-4h19v13h-7v8h10v4h-10l-1 13h7zm94-56h15v1h-15z"/><path d="M374 273v-19h-4v-7h4v-9h-3v-7h3v-5h-16v19h-12v-11h-1v-6h-1v-7h1v-4h-5l-4 5h7v2h-8l-1 1h7v3h-9l-5 7h17v6h-21l-7 9h14v23h-30l-1 2h38v2h-38v4h66v2h-66v5h25v9h-25v4h42v7h14v3h-14v5h33v-15h9v-28h-9zm-20 3h-15v-3h-6l6-10v-8h15v21zm13-30h-5v-4h5v4zm-8-29h15v4h-15zm-255 52h10v7h-10zm90-34h7v7h-7zm9 4h4v4h-4zm94 13h2v7h-2zm81-24h7v7h-7zm9 4h4v4h-4zm-81 14h4v4h-4zm-21-21h4v4h-4z"/></g><g opacity=".7"><path d="M202 290v-17h-10v-11h-6v-7h6v-9h-5v-7h5v-6h-20v-1h20v-1h-22v7h1v4h-5v-3h-6v-16h10v5h22v-11h-34l-9 13h10v1h-11l-1 2h10v2h-12l-9 14h16v5h-20l-14 21v7h35v2h-35v5h63v1h-63v4h9v5h-9v2h41v4h22v7h-22v4h33v-15h10v-6h-7v-5h7zm-75-11h-4v-4h4v4zm11-3h-7v-7h7v7zm33-2h-12v-1h-7l7-12v-7h12v20zm12-20h-5v-4h5v4zm108 21a95 95 0 0 0-3-36h-31v-5h29c-7-14-19-21-36-21-10 0-18 3-24 8h39v2h-42l-5 6h8v6h-12a70 70 0 0 0-5 35h9v15h-7l2 5h28v5h-26l2 4h44v2h-42c7 9 17 14 31 14 23 0 37-13 41-38h-21v-2h21zm-23-50h4v4h-4v-4zm1 41h-10l-1 13h7v10h-16v-5c-7 0-8-7-8-20 0-11 1-17 6-19v-4h19v13h-7v8h10v4zm90-43h16v1h-16z"/><path d="M374 273v-19h-4v-7h4v-9h-3v-7h3v-5h-16v19h-12v-11h-1v-6h-1v-7h1v-4h-5l-4 5h7v2h-8l-1 1h7v3h-8l-5 7h16v6h-21l-6 9h13v23h-29l-1 2h37v2h-37v4h65v2h-65v5h24v9h-24v4h41v7h14v3h-14v5h33v-15h10v-28h-10zm-20 3h-15v-3h-6l6-10v-8h15v21zm13-30h-4v-4h4v4zm-8-29h16v4h-16zm-255 52h10v7h-10zm90-34h7v7h-7zm9 4h4v4h-4zm94 13h1v7h-1zm81-24h7v7h-7zm9 4h4v4h-4zm-81 14h4v4h-4zm-21-21h4v4h-4z"/></g><g opacity=".8"><path d="M202 290v-17h-10v-11h-6v-7h6v-9h-5v-7h5v-6h-20v-1h20v-1h-22v7h1v4h-4v-3h-7v-16h10v5h22v-11h-34l-9 13h10v1h-11l-1 2h10v2h-12l-9 14h16v5h-20l-14 21v7h35v2h-35v5h63v1h-63v4h9v5h-9v2h41v4h22v7h-22v4h33v-15h10v-6h-7v-5h7zm-75-11h-4v-4h4v4zm11-3h-7v-7h7v7zm33-2h-12v-1h-7l7-12v-7h12v20zm12-20h-4v-4h4v4zm108 21a95 95 0 0 0-3-36h-31v-5h29c-7-14-19-21-36-21-9 0-18 3-24 8h40v2h-43l-5 6h8v6h-12a70 70 0 0 0-5 35h9v15h-7l2 5h29v5h-27l2 4h44v2h-42c7 9 18 14 31 14 23 0 38-13 41-38h-21v-2h21zm-23-50h4v4h-4v-4zm1 41h-9l-2 13h7v10h-16v-5c-7 0-8-7-8-20 0-11 1-17 6-19v-4h19v13h-7l1 8h9v4zm90-43h16v1h-16z"/><path d="M374 273v-19h-3v-7h3v-9h-3v-7h3v-5h-16v19h-12v-11h-1v-6h-1v-7h1v-4h-5l-4 5h7v2h-8l-1 1h7v3h-8l-5 7h16v6h-21l-6 9h13v23h-29l-1 2h37v2h-37v4h65v2h-65v5h24v9h-24v4h41v7h14v3h-14v5h33v-15h10v-28h-10zm-20 3h-15v-3h-5l5-9v-9h15v21zm13-30h-4v-4h4v4zm-8-29h16v4h-16zm-255 52h10v7h-10zm90-34h7v7h-7zm9 4h4v4h-4zm95 13h1v7h-1zm80-24h7v7h-7zm9 4h4v4h-4zm-81 14h4v4h-4zm-20-21h4v4h-4z"/></g><g opacity=".9"><path d="M202 290v-17h-9v-11h-6v-7h6v-9h-6v-7h6v-6h-21v-1h21v-1h-23v7h1v4h-4v-3h-7v-16h10v5h23v-11h-35l-9 13h10v1h-11l-1 2h10v2h-11l-10 14h16v5h-20l-14 21v7h35v2h-35v5h63v1h-63v4h9v5h-9v2h42v4h21v7h-21v4h33v-15h9v-6h-7v-5h7zm-74-11h-5v-4h5v4zm10-3h-7v-7h7v7zm33-2h-12v-1h-7l7-11v-8h12v20zm12-20h-4v-4h4v4zm108 21a95 95 0 0 0-3-36h-31v-5h29c-7-14-19-21-35-21-10 0-18 3-25 8h40v2h-43l-5 6h8v6h-11a70 70 0 0 0-6 35h9v15h-6l1 5h29v5h-27l2 4h44v2h-42c7 9 18 14 32 14 23 0 37-13 40-38h-21v-2h21zm-23-50h5v4h-5v-4zm1 41h-9l-2 13h7v10h-16v-5c-6 0-8-7-8-20 0-10 1-17 6-19v-4h19v13h-7l1 8h9v4zm90-43h16v1h-16zm0-6h16v4h-16z"/><path d="M374 273v-19h-3v-7h3v-9h-3v-7h3v-5h-16v19h-12v-11h-1v-6h-1v-7h1v-4h-5l-3 5h6v2h-7l-1 1h6v3h-8l-5 7h16v6h-21l-6 9h13v23h-29l-1 2h38v2h-38v4h65v2h-65v5h24v9h-24v4h42v7h13v3h-13v5h32v-15h10v-28h-10zm-20 3h-15v-3h-5l5-9v-9h15v21zm13-30h-4v-4h4v4zm-263 23h10v7h-10zm90-34h7v7h-7zm9 4h4v4h-4zm95 13h1v7h-1zm81-24h7v7h-7zm9 4h4v4h-4zm-82 14h4v4h-4zm-20-21h4v4h-4z"/></g><path d="M202 290v-17h-9v-11h-6v-7h6v-9h-6v-7h6v-6h-21v-1h21v-1h-23v7h1v4h-4v-3h-7v-16h10v5h23v-11h-34l-9 13h9v1h-10l-1 2h9v2h-11l-10 14h16v5h-20l-14 21v7h36v2h-36v5h63v1h-63v4h9v5h-9v2h42v4h21v7h-21v4h33v-15h9v-6h-6v-5h6zm-74-11h-4v-4h4v4zm10-3h-7v-7h7v7zm33-2h-12v-1h-7l7-11v-8h12v20zm12-20h-4v-4h4v4zm109 21a95 95 0 0 0-4-36h-31v-5h29c-6-14-18-21-35-21-10 0-18 3-25 8h40v2h-43l-5 6h8v6h-11a70 70 0 0 0-5 35h8v15h-6l1 5h29v5h-27l3 4h43v2h-42c7 9 18 14 32 14 23 0 37-13 40-38h-21v-2h22zm-23-50h4v4h-4v-4zm0 41h-9l-1 13h6v10h-16v-5c-6-1-8-7-8-20 0-10 1-17 6-19v-4h19v13h-6v8h9v4zm90-43h16v1h-16z"/><path d="M375 273v-19h-4v-7h4v-9h-3v-7h3v-5h-17v19h-12v-11h-1v-6h-1v-7h1v-4h-4l-4 5h6v2h-7l-1 1h6v3h-8l-5 7h16v6h-20l-7 9h13v23h-29l-1 2h38v2h-38v4h65v2h-65v5h24v9h-24v4h42v7h13v3h-13v5h33v-15h9v-28h-9zm-21 3h-15v-3h-5l5-8v-10h15v21zm14-30h-5v-4h5v4zm-9-29h16v4h-16zm-255 52h10v7h-10zm91-34h7v7h-7zm9 4h4v4h-4zm94 13h1v7h-1zm81-24h7v7h-7zm9 4h4v4h-4zm-81 14h4v4h-4zm-21-21h4v4h-4z"/></g><g fill="#CB193B"><g opacity=".1"><path d="M199 262h-6v-7h6v-9h-6v-7h6v-6h-21v-1h21v-1h-24v-3h24v-10h-35l-8 12h9v1h-10l-1 2h9v2h-11l-28 40v7h36v2h-36v5h63v1h-63v9h40v2h2v14h33v-14h9v-6h-6v-5h6v-17h-9v-11zm-65 17h-4v-4h4v4zm10-3h-7v-7h7v7zm22-48h7v7h-7v-7zm2 45h-10l10-16v16zm9-31h-1v2h-12v-8h12v2h1v4zm12 12h-2v2h-9v-7h9v1h2v4zm109 21a95 95 0 0 0-4-36h-31v-5h29c-6-14-18-21-35-21-10 0-18 3-25 8h40v2h-43c-9 9-14 22-14 41 0 10 2 19 4 26h29v5h-2v1h-24l2 3h43v2h-42c7 9 18 14 32 14 23 0 37-13 40-38h-21v-2h22zm-23-50h4v4h-4v-4zm-18 59c-8 0-10-7-10-20s2-20 10-20 9 7 9 20-1 20-9 20zm92-5-13-2h-30v2h43z"/><path d="M381 273v-19h-4v-7h4v-9h-3v-7h3v-5h-18v-2h18v-1h-22v-2h22v-4h-35l-3 5h6v2h-7l-1 1h6v3h-8l-33 47h38v1l9 2 3 1h7l-6-6c-1-1 0-2 1-1l7 7h5v2h1v2h-1v1h1v1h1l-1 2-1-1v2h-64v10h41v3h1v12h33v-12h9v-28h-9zm-63-1h-4v-5h4v5zm11-3h-7v-7h7v7zm21 4h-10l10-16v16zm0-45v-7h7v7h-7zm11 7h-4v-5h4v5zm13 11h-4v4h-8v-11h8v3h4v4zm-264 23h10v7h-10zm91-34h7v7h-7zm9 4h4v4h-4zm94 13h10v7h-10zm81-24h7v7h-7zm9 4h4v4h-4zm-81 14h4v4h-4zm-21-21h4v4h-4z"/></g><g opacity=".2"><path d="M198 262h-6v-7h6v-9h-5v-7h5v-6h-20v-1h20v-1h-23v-3h23v-10h-35l-8 12h10v1h-11l-1 2h10v2h-12l-27 40v7h35v2h-35v5h63v1h-63v9h40v2h1v14h33v-14h10v-6h-7v-5h7v-17h-10v-11zm-65 17h-4v-4h4v4zm11-3h-7v-7h7v7zm22-48h7v7h-7v-7zm2 45h-10l10-16v16zm9-31h-1v2h-12v-8h12v2h1v4zm12 12h-2v2h-9v-7h9v1h2v4zm108 21a95 95 0 0 0-3-36h-31v-5h29c-7-14-19-21-36-21-9 0-18 3-24 8h40v2h-43c-9 9-14 22-14 41 0 10 1 19 4 26h29v5h-2v1h-24l1 3h44v2h-42c7 9 18 14 31 14 23 0 38-13 41-38h-21v-2h21zm-23-50h4v4h-4v-4zm-18 59c-8 0-9-7-9-20s1-20 9-20 10 7 10 20-2 20-10 20zm93-5-13-2h-30v2h43z"/><path d="M380 273v-19h-3v-7h3v-9h-3v-7h3v-5h-18v-2h18v-1h-21v-2h21v-4h-34l-4 5h7v2h-8l-1 1h7v3h-8l-33 47h37v1l10 2 3 1h7l-6-6c-1-1 0-2 1-1l7 7h5v2h1v2h-1v1h1v1h1l-1 2-1-1v2h-64v10h41v15h33v-12h10v-28h-10zm-62-1h-5v-5h5v5zm10-3h-7v-7h7v7zm22 4h-10l10-16v16zm0-45v-7h7v7h-7zm11 7h-4v-5h4v5zm12 11h-3v4h-8v-11h8v3h3v4zm-263 23h10v7h-10zm90-34h7v7h-7zm9 4h4v4h-4zm95 13h10v7h-10zm80-24h7v7h-7zm9 4h4v4h-4zm-81 14h4v4h-4zm-20-21h4v4h-4z"/></g><g opacity=".3"><path d="M198 262h-6v-7h6v-9h-6v-7h6v-6h-20v-1h20v-1h-24v-3h24v-10h-35l-8 12h9v1h-10l-1 2h9v2h-11l-28 40v7h36v2h-36v5h63v1h-63v9h41v2h1v14h33v-14h9v-6h-6v-5h6v-17h-9v-11zm-65 17h-4v-4h4v4zm11-3h-7v-7h7v7zm21-48h7v7h-7v-7zm2 45h-10l10-16v16zm9-31v2h-12v-8h12v6zm13 12h-2v2h-9v-7h9v1h2v4zm108 21a95 95 0 0 0-4-36h-30v-5h28c-6-14-18-21-35-21-10 0-18 3-25 8h40v2h-43c-9 9-14 22-14 41 0 10 2 19 4 26h29v5h-1v1h-25l2 3h44v2h-42c7 9 17 14 31 14 23 0 37-13 41-38h-22v-2h22zm-23-50h4v4h-4v-4zm-18 59c-8 0-10-7-10-20s2-20 10-20 9 7 9 20-1 20-9 20zm93-5-13-2h-31v2h44z"/><path d="M380 273v-19h-4v-7h4v-9h-3v-7h3v-5h-18v-2h18v-1h-22v-2h22v-4h-35l-3 5h7v2h-8l-1 1h7v3h-9l-33 47h38v1l10 2 3 1h7l-6-6c-1-1 0-2 1-1l7 7h5v2h1v2h-1v1h1v1h1l-1 2-1-1v2h-65v10h42v15h33v-12h9v-28h-9zm-63-1h-4v-5h4v5zm11-3h-7v-7h7v7zm21 4h-10l10-16v16zm1-45v-7h7v7h-7zm11 7h-5v-5h5v5zm12 11h-3v4h-8v-11h8v3h3v4zm-263 23h10v7h-10zm90-34h7v7h-7zm9 4h4v4h-4zm94 13h10v7h-10zm81-24h7v7h-7zm9 4h4v4h-4zm-81 14h4v4h-4zm-21-21h4v4h-4z"/></g><g opacity=".4"><path d="M197 262h-6v-7h6v-9h-5v-7h5v-6h-20v-1h20v-1h-23v-3h23v-10h-34l-9 12h10v1h-11l-1 2h10v2h-11l-28 40v7h35v2h-35v5h63v1h-63v9h41v2h1v14h32v-14h10v-6h-7v-5h7v-17h-10v-11zm-64 17h-5v-4h5v4zm10-3h-7v-7h7v7zm22-48h7v7h-7v-7zm2 45h-10l10-16v16zm9-29h-12v-8h12v8zm12 10h-1v2h-9v-7h9v1h1v4zm108 21a95 95 0 0 0-3-36h-31v-5h29c-7-14-19-21-36-21-9 0-18 3-24 8h40v2h-43c-9 9-14 22-14 41 0 10 1 19 4 26h29v5h-1v1h-25l1 3h44v2h-42c7 9 18 14 31 14 24 0 38-13 41-38h-21v-2h21zm-23-50h5v4h-5v-4zm-18 59c-7 0-9-7-9-20s2-20 9-20c8 0 10 7 10 20s-2 20-10 20zm124-11v-19h-3v-7h3v-9h-3v-7h3v-5h-18v-2h18v-1h-21v-2h21v-4h-34l-4 5h7v2h-7l-1 1h6v3h-8l-33 47h37v1l11 2 3 1h7l-6-6c-1-1 0-2 1-1l7 7h5v5h1v1h1l-1 2-1-1v2h-65v10h42v15h32v-12h10v-28h-10zm-62-1h-5v-5h5v5zm10-3h-7v-7h7v7zm22 4h-10l10-16v16zm0-45v-7h7v7h-7zm11 7h-4v-5h4v5zm12 11h-2v4h-8v-11h8v3h2v4z"/><path d="m349 279-13-2h-31v2h44zm-240-10h10v7h-10zm90-34h7v7h-7zm9 4h4v4h-4zm95 13h10v7h-10zm81-24h7v7h-7zm8 4h4v4h-4zm-81 14h4v4h-4zm-20-21h4v4h-4z"/></g><g opacity=".5"><path d="M197 262h-6v-7h6v-9h-5v-7h5v-6h-20v-1h20v-1h-24v-3h24v-10h-35l-8 12h9v1h-10l-1 2h9v2h-11l-28 40v7h36v2h-36v5h64v1h-64v9h42v16h33v-14h10v-6h-7v-5h7v-17h-10v-11zm-65 17h-4v-4h4v4zm11-3h-7v-7h7v7zm22-48h7v7h-7v-7zm2 45h-11l11-16v16zm9-29h-12v-8h12v8zm12 10h-1v2h-9v-7h9v1h1v4zm108 21a95 95 0 0 0-4-36h-30v-5h28c-6-14-18-21-35-21-10 0-18 3-24 8h39v2h-42c-10 9-14 22-14 41 0 10 1 19 4 26h28v6h-26l2 3h44v2h-42c7 9 17 14 31 14 23 0 37-13 41-38h-21v-2h21zm-23-50h4v4h-4v-4zm-18 59c-8 0-9-7-9-20s1-20 9-20 9 7 9 20-1 20-9 20zm94-5-13-2h-32v2h45z"/><path d="M379 273v-19h-4v-7h4v-9h-3v-7h3v-5h-18v-2h18v-1h-21v-2h21v-4h-35l-3 5h7v2h-8l-1 1h7v3h-9l-33 47h38v1l11 2 3 1h7l-6-6c-1-1 0-2 1-1l7 7h5v5h1v1h1l-1 2-1-1v2h-66v10h43v8h-1v7h33v-12h10v-28h-10zm-63-1h-4v-5h4v5zm11-3h-7v-7h7v7zm21 4h-10l10-16v16zm1-45v-7h7v7h-7zm11 7h-5v-5h5v5zm12 11h-2v4h-8v-11h8v3h2v4zm-263 23h10v7h-10zm90-34h7v7h-7zm9 4h4v4h-4zm94 13h10v7h-10zm81-24h7v7h-7zm9 4h4v4h-4zm-81 14h4v4h-4zm-21-21h4v4h-4z"/></g><g opacity=".6"><path d="M197 262h-6v-7h6v-9h-6v-7h6v-6h-21v-1h21v-1h-24v-3h24v-10h-35l-9 12h10v1h-11l-1 2h10v2h-11l-28 40v7h35v2h-35v5h63v1h-63v9h42v16h33v-14h9v-6h-7v-5h7v-17h-9v-11zm-65 17h-5v-4h5v4zm10-3h-7v-7h7v7zm22-48h7v7h-7v-7zm2 45h-10l10-16v16zm10-29h-12v-8h12v8zm11 10v2h-9v-7h9v5zm108 21a95 95 0 0 0-3-36h-31v-5h29c-7-14-19-21-35-21-10 0-18 3-25 8h40v2h-43c-9 9-14 22-14 41 0 10 1 19 4 26h29v6h-26l1 3h44v2h-42c7 9 18 14 32 14 23 0 37-13 40-38h-21v-2h21zm-23-50h5v4h-5v-4zm-17 59c-8 0-10-7-10-20s2-20 10-20c7 0 9 7 9 20s-2 20-9 20zm94-5-13-2h-32v2h45z"/><path d="M378 273v-19h-3v-7h3v-9h-3v-7h3v-5h-18v-2h18v-1h-21v-2h21v-4h-34l-3 5h6v2h-7l-1 1h6v3h-8l-33 47h38v1l11 2 3 1h7l-6-6c-1-1 0-2 1-1l7 7h5v5h1v1h1l-1 2-1-1v2h-66v10h43v8h-1v7h32v-12h10v-28h-10zm-62-1h-5v-5h5v5zm10-3h-7v-7h7v7zm22 4h-10l10-16v16zm0-45v-7h7v7h-7zm11 7h-4v-5h4v5zm12 11h-1v4h-8v-11h8v3h1v4zm-263 23h10v7h-10zm90-34h7v7h-7zm9 4h4v4h-4zm95 13h10v7h-10zm81-24h7v7h-7zm9 4h4v4h-4zm-82 14h4v4h-4zm-20-21h4v4h-4z"/></g><g opacity=".7"><path d="M196 262h-6v-7h6v-9h-5v-7h5v-6h-20v-1h20v-1h-24v-3h24v-10h-35l-8 12h10v1h-11l-1 2h10v2h-12l-27 40v7h35v2h-35v5h63v1h-63v9h42v9h-1v7h33v-14h10v-6h-7v-5h7v-17h-10v-11zm-65 17h-4v-4h4v4zm11-3h-7v-7h7v7zm22-48h7v7h-7v-7zm2 45h-10l10-16v16zm10-29h-12v-8h12v8zm11 12h-9v-7h9v7zm108 19a95 95 0 0 0-3-36h-31v-5h29c-7-14-19-21-36-21-10 0-18 3-24 8h39v2h-42c-9 9-14 22-14 41 0 10 1 19 4 26h28v3h1v3h-26l1 3h44v2h-42c7 9 17 14 31 14 23 0 37-13 41-38h-21v-2h21zm-23-50h4v4h-4v-4zm-18 59c-8 0-9-7-9-20s1-20 9-20 9 7 9 20-1 20-9 20zm95-5-13-2h-32v2h45z"/><path d="M378 273v-19h-4v-7h4v-9h-3v-7h3v-5h-18v-2h18v-1h-21v-2h21v-4h-34l-4 5h7v2h-8l-1 1h7v3h-8l-33 47h37v1l12 2 3 1h7l-6-6c-1-1 0-2 1-1l7 7h5v5h1v1h1l-1 2-1-1v2h-66v10h43v8h-2v7h33v-12h10v-28h-10zm-63-1h-4v-5h4v5zm11-3h-7v-7h7v7zm22 4h-11l11-16v16zm0-45v-7h7v7h-7zm11 7h-5v-5h5v5zm12 11h-1v4h-8v-11h8v3h1v4zm-263 23h10v7h-10zm90-34h7v7h-7zm9 4h4v4h-4zm94 13h10v7h-10zm81-24h7v7h-7zm9 4h4v4h-4zm-81 14h4v4h-4zm-21-21h4v4h-4z"/></g><g opacity=".8"><path d="M196 262h-6v-7h6v-9h-6v-7h6v-6h-21v-1h21v-1h-24v-3h24v-10h-35l-9 12h10v1h-10l-1 2h9v2h-11l-28 40v7h35v2h-35v5h63v1h-63v9h43v9h-1v7h33v-14h9v-6h-7v-5h7v-17h-9v-11zm-65 17h-5v-4h5v4zm10-3h-7v-7h7v7zm22-48h7v7h-7v-7zm2 45h-10l10-16v16zm11-29h-12v-8h12v8zm11 12h-9v-7h9v7zm108 19a95 95 0 0 0-4-36h-31v-5h29c-7-14-19-21-35-21-10 0-18 3-25 8h40v2h-43c-9 9-14 22-14 41 0 10 2 19 4 26h29v3h1v3h-27l2 3h43v2h-42c7 9 18 14 32 14 23 0 37-13 40-38h-21v-2h22zm-24-50h5v4h-5v-4zm-17 59c-8 0-10-7-10-20s2-20 10-20 9 7 9 20-1 20-9 20zm95-5-13-2h-33v2h46z"/><path d="M378 273v-19h-4v-7h4v-9h-4v-7h4v-5h-18v-2h18v-1h-22v-2h22v-4h-35l-3 5h6v2h-7l-1 1h6v3h-8l-33 47h38v1l12 2 3 1h7l-6-6c-1-1 0-2 1-1l7 7h5v5h1v1h1l-1 2-1-1v2h-67v10h44v8h-2v7h33v-12h9v-28h-9zm-63-1h-4v-5h4v5zm11-3h-7v-7h7v7zm21 4h-10l10-16v16zm0-45v-7h7v7h-7zm11 7h-4v-5h4v5zm12 11v4h-8v-11h8v7zm-263 23h10v7h-10zm91-34h7v7h-7zm8 4h4v4h-4zm95 13h10v7h-10zm81-24h7v7h-7zm9 4h4v4h-4zm-81 14h4v4h-4zm-21-21h4v4h-4z"/></g><g opacity=".9"><path d="M195 262h-6v-7h6v-9h-5v-7h5v-6h-20v-1h20v-1h-23v-3h23v-10h-35l-8 12h10v1h-11l-1 2h10v2h-12l-27 40v7h35v2h-35v5h63v1h-63v9h43v9h-2v7h33v-14h10v-6h-7v-5h7v-17h-10v-11zm-65 17h-4v-4h4v4zm11-3h-7v-7h7v7zm22-48h7v7h-7v-7zm2 45h-10l10-16v16zm11-29h-12v-8h12v8zm11 12h-9v-7h9v7zm107 19a95 95 0 0 0-3-36h-31v-5h29c-7-14-19-21-36-21-10 0-18 3-24 8h40v2h-43c-9 9-14 22-14 41 0 10 1 19 4 26h29v3h1v3h-27l1 3h44v2h-42c7 9 17 14 31 14 23 0 38-13 41-38h-21v-2h21zm-23-50h4v4h-4v-4zm-18 59c-8 0-9-7-9-20s1-20 9-20 10 7 10 20-2 20-10 20zm96-5-13-2h-33v2h46z"/><path d="M377 273v-19h-4v-7h4v-9h-3v-7h3v-5h-18v-2h18v-1h-21v-2h21v-4h-34l-4 5h7v2h-8l-1 1h7v3h-8l-33 47h37v1l13 2 3 1h7l-6-6c-1-1 0-2 1-1l7 7h5v5h1v1h1l-1 2-1-1v2h-67v10h44v8h-3v7h33v-12h10v-28h-10zm-63-1h-4v-5h4v5zm11-3h-7v-7h7v7zm22 4h-10l10-16v16zm0-45v-7h7v7h-7zm11 7h-4v-5h4v5zm12 15h-8v-11h8v11zm-263 19h10v7h-10zm90-34h7v7h-7zm9 4h4v4h-4zm94 13h10v7h-10zm81-24h7v7h-7zm9 4h4v4h-4zm-81 14h4v4h-4zm-20-21h4v4h-4z"/></g><path d="M195 262h-6v-7h6v-9h-6v-7h6v-6h-21v-1h21v-1h-24v-3h24v-10h-35l-8 12h9v1h-10l-1 2h9v2h-11l-28 40v7h36v2h-36v5h63v1h-63v9h44v9h-2v7h33v-14h9v-6h-6v-5h6v-17h-9v-11zm-65 17h-4v-4h4v4zm10-3h-7v-7h7v7zm22-48h7v7h-7v-7zm2 45h-10l10-16v16zm12-29h-12v-8h12v8zm11 12h-9v-7h9v7zm107 19a95 95 0 0 0-4-36h-31v-5h29c-6-14-18-21-35-21-10 0-18 3-25 8h40v2h-43c-9 9-14 22-14 41 0 10 2 19 4 26h29v3h2v3h-28l2 3h43v2h-42c7 9 18 14 32 14 23 0 37-13 40-38h-21v-2h22zm-23-50h4v4h-4v-4zm-18 59c-8 0-10-7-10-20s2-20 10-20 9 7 9 20-1 20-9 20zm96-5-13-2h-34v2h47z"/><path d="M377 273v-19h-4v-7h4v-9h-3v-7h3v-5h-18v-2h18v-1h-22v-2h22v-4h-35l-3 5h6v2h-7l-1 1h6v3h-8l-33 47h38v1l13 2 3 1h7l-6-6c-1-1 0-2 1-1l7 7h5v5h1v1h1l-1 2-1-1v2h-68v10h45v8h-3v7h33v-12h9v-28h-9zm-63-1h-4v-5h4v5zm11-3h-7v-7h7v7zm21 4h-10l10-16v16zm0-45v-7h7v7h-7zm11 7h-4v-5h4v5zm13 15h-8v-11h8v11zm-264 19h10v7h-10zm91-34h7v7h-7zm9 4h4v4h-4zm94 13h10v7h-10zm81-24h7v7h-7zm9 4h4v4h-4zm-81 14h4v4h-4zm-21-21h4v4h-4z"/></g><g fill="#1D262D"><path d="M197 290h6v-17h-9v-11h-6v-7h6v-9h-6v-7h6v-6h-21v-1h21v-1h-24v-3h24v-11h-34l-9 13h9v1h-10l-1 2h9v2h-11l-28 40v7h36v2h-36v5h63v1h-63v11h42v15h33v-15h9v-6h-6v-5zm-36-62h7v7h-7v-7zm-32 51h-4v-4h4v4zm10-3h-7v-7h7v7zm24-3h-10l10-16v16zm9-31h-4v-4h4v4zm12 12h-4v-4h4v4zm87 21h22a95 95 0 0 0-4-36h-31v-5h29c-6-14-18-21-35-21-10 0-18 3-25 8h40v2h-43c-9 9-14 22-14 41 0 10 2 19 4 26h29v5h-27l3 4h43v2h-42c7 9 18 14 32 14 23 0 37-13 40-38h-21v-2zm-1-50h4v4h-4v-4zm-18 59c-8 0-10-7-10-20s2-20 10-20 9 7 9 20-1 20-9 20zm124-30h-4v-7h4v-9h-3v-7h3v-5h-18v-2h18v-1h-22v-2h22v-4h-34l-4 5h6v2h-7l-1 1h6v3h-8l-33 47h38v2h-38v4h65v2h-65v18h42v15h33v-15h9v-28h-9v-19zm-63 18h-4v-5h4v5zm11-3h-7v-7h7v7zm21 4h-10l10-16v16zm0-52h7v7h-7v-7zm11 14h-4v-5h4v5zm13 11h-5v-4h5v4zm-264 23h10v7h-10z"/><path d="M196 235h7v7h-7zm9 4h4v4h-4zm94 13h10v7h-10zm81-24h7v7h-7zm9 4h4v4h-4zm-81 14h4v4h-4zm-21-21h4v4h-4z"/></g><path fill="#fff" d="M98 188h53v2H98zm11-4h17v1h-17zm-6-42h21v5h-21zm44-4h13v2h-13zm12 12h11v2h-11zm0 6h9v7h-9zm0 10h34v2h-34zm0 7h12v3h-12zm31-33h22v3h-22zm23 28h13v2h-13zm-4 5h21v4h-21zm44-33h18v4h-18zm6 6h11v1h-11zm22 27h20v1h-20zm-15 9h22v3h-22zm38-14h16v3h-16zm12-19h18v3h-18zm44 36h37v4h-37zm13-6h14v2h-14zm-41-41h19v2h-19zm0 4h30v1h-30zm46 7h18v2h-18zm-46 36h11v3h-11zM108 340h86v2h-86zm93 7h62v1h-62zm1 3h62v2h-62zm72-10h93v1h-93zm-1 12h95v1h-95z"/></svg>