<svg xmlns="http://www.w3.org/2000/svg" viewBox="0 0 86.73 19.36"><path fill="#ff6a00" d="M62.38,14.67h6.26v-1.96h-6.26v-1.96h6.06V.59h-14.08v10.17h6.06v1.96h-6.26v1.96h6.26v2.15h-6.75v1.96h15.55v-1.96h-6.75v-2.15h-.1ZM62.58,2.54h4.11v2.15h-4.11v-2.15ZM62.58,6.65h4.11v2.05h-4.11v-2.05ZM60.62,8.7h-4.11v-2.05h4.11v2.05ZM60.62,4.69h-4.11v-2.15h4.11s0,2.15,0,2.15ZM10.27,8.41h10.27v2.35h-10.27v-2.35Z"/><path fill="#ff6a00" d="M25.62,0h-6.75l1.66,2.35,4.89,1.56c.88.29,1.47,1.17,1.47,2.05v7.43c0,.88-.59,1.76-1.47,2.05l-4.89,1.56-1.66,2.35h6.75c2.84,0,5.08-2.25,5.08-5.08V5.18C30.7,2.35,28.45,0,25.62,0ZM5.28,15.45c-.88-.29-1.47-1.17-1.47-2.05v-7.43c0-.88.59-1.76,1.47-2.05l4.89-1.56,1.66-2.35h-6.75C2.25,0,0,2.35,0,5.18v9c0,2.84,2.25,5.08,5.08,5.08h6.75l-1.66-2.35s-4.89-1.47-4.89-1.47ZM47.62,4.69h-4.99v10.27h4.99V4.69ZM45.56,12.91h-1.08v-6.26h1.08v6.26ZM35.3,18.77h1.96V2.54h2.05l-1.17,5.38v1.96h1.17v4.3c0,.29-.2.49-.49.49h-.49v1.96h.98c1.08,0,1.96-.88,1.96-1.96v-6.84h-1.17l1.17-5.38V.49h-5.96s0,18.28,0,18.28Z"/><path fill="#ff6a00" d="M42.14,2.54h6.75v12.61c0,.88-.68,1.66-1.66,1.66h-1.47v1.96h2.05c1.66,0,3.13-1.37,3.13-3.13V2.54h.68V.59h-9.48s0,1.96,0,1.96ZM71.87.68h14.08v1.96h-14.08V.68ZM86.73,9.97v-1.96h-15.55v1.96h3.91l-3.13,6.84v1.96h13.2c.59,0,.98-.49.98-.98,0-.2,0-.29-.1-.39l-1.66-3.72h-2.15l1.47,3.13h-9.48l3.13-6.84h9.39Z"/></svg>