<svg viewBox="0 0 285 110" xmlns="http://www.w3.org/2000/svg"><defs><linearGradient id="b" x1="126.11" x2="126.11" y1="41.26" y2="19.92" gradientUnits="userSpaceOnUse"><stop stop-color="#05cd66" offset=".06"/><stop stop-color="#0dd068" offset=".22"/><stop stop-color="#26da6f" offset=".48"/><stop stop-color="#4dea7a" offset=".81"/><stop stop-color="#61f380" offset=".95"/></linearGradient><linearGradient id="a" x1="137.19" x2="137.19" y1="46.86" y2="29.08" gradientUnits="userSpaceOnUse"><stop stop-color="#d2d2d2" offset="0"/><stop stop-color="#e3e3e3" offset="0"/><stop stop-color="#f2f2f2" offset="1"/></linearGradient><style>.h{fill:#fff}.j{fill:#606060}</style></defs><path class="h" d="M0 0h285v110H0z"/><path d="M38.68 94.48h3.17v-3.17h-3.17v-3.16h12.67v-3.17h-6.33V72.32h-3.17v-3.17h-3.17v6.33h3.17v9.5h-6.33v15.83h3.16v-6.33z"/><path d="M48.18 91.31h3.17v3.17h-3.17zM22.85 24.83h3.17v-9.5h-9.5v9.5h6.33zm12.67-12.66h3.17v3.17h-3.17zm-19 25.32v3.17h3.17v3.16h3.16v-3.16h3.17v3.16h6.33v-3.16h-3.16v-3.17h-3.17v-3.16H10.19v3.16h6.33z"/><path d="M16.52 31.16h15.83V9H10.19v22.16h6.33Zm-3.16-6.33V12.17h15.83V28H13.36v-3.17Zm6.33 60.15h-3.17v9.5h9.5v-9.5h-6.33z"/><path d="M32.35 94.48V78.65H10.19v22.16h22.16v-6.33Zm-6.33 3.16H13.36V81.81h15.83v15.83h-3.17ZM13.36 72.32V59.65h-3.17v15.83h3.17v-3.16zm34.82 25.32v-3.16h-3.16v3.16h-3.17v3.17h9.5v-3.17h-3.17zm47.49-63.31h3.17v3.17h-3.17zm3.16 15.83H102v3.17h-3.17z"/><path d="M98.83 37.49H102v3.17h-3.17zm0-28.49H79.84v22.16H102V9h-3.17Zm0 6.33v12.66H83V12.16h15.83v3.17Z"/><path d="M89.34 15.33h-3.17v9.5h9.5v-9.5h-6.33zm9.49 53.82h-3.17v3.17h-3.17v3.17h-3.17v-3.17H73.49v6.33h-3.17v-6.33h-3.17v-6.33h-3.17v-3.17h6.33v3.17h3.17v3.17h6.33v-3.17h-3.17v-3.17h-3.17v-3.17h9.5v-6.33h3.17v3.17h3.17v-6.33h-9.5v-3.17h3.17v-3.17h6.33v-6.33h-3.17v-3.17h-3.17v3.17H79.8v-3.17h-3.17v6.33h3.17v3.17h-3.17v-3.17h-3.17v6.33h3.17v3.17h-3.17v-3.17h-3.17v-6.33h-3.17v6.33h-6.33v3.17h6.33v9.5h-3.17v-3.17h-3.17v6.33h-6.33v3.17h-3.17v3.17h6.33v-3.17h3.17v3.17h3.17v9.5h-3.17v-6.33h-3.17v3.17h-9.5v6.33h3.17v-3.17h3.17v3.17h-3.17v3.17h3.17v6.33h3.17v-3.17h3.17v3.17h-3.17v6.33h-3.17v3.17h6.33v-3.17h3.17v-6.33h3.17v-3.17h-3.17v-3.17h3.17v-3.17h3.17v3.17h3.17v6.33h-6.33v3.17h6.33v3.17h6.33v-3.17h-3.17v-6.33h12.66v3.17h-9.5v3.17h3.17v6.33h6.33v-3.17h3.17v-3.17h3.17v3.17h3.17v-6.33h-6.33v-3.17h9.5v-3.17h-9.5v-3.17h3.17v-3.17h6.33v-6.33h-3.17v-3.17ZM79.84 53.32v3.17h-3.17v-3.17h3.17Zm-9.5 0h3.17v3.17h-3.17v-3.17Zm12.67 31.66h-6.33v-9.5h9.5v9.5h-3.17Z"/><path d="M79.84 78.65h3.17v3.17h-3.17zM92.5 97.64h3.17v3.17H92.5zm6.33-34.82H102v3.17h-3.17zM67.18 84.98h3.17v3.17h-3.17zM16.52 56.49v-3.17h-3.16v-3.16h6.33v-6.34h-3.17v-3.16h-3.16v6.33h-3.17v9.5h6.33zm75.98-3.17v3.17h3.17v-9.5h-6.33v3.17h3.16v3.16zm-63.31 19h3.17v3.17h-3.17zm6.33 6.33v3.16h3.16v-6.33h-3.16v3.17zm-19-22.16h3.17v3.17h-3.17zm25.33-28.5v-6.33h3.17V18.5h-9.5v3.16h3.16v3.17h-3.16v6.33h3.16v-3.17h3.17zm6.33 3.17h3.17v-6.33h-6.33v3.16h3.16v3.17zm22.16-15.83h3.17v3.17h-3.17zM92.5 62.82h-6.33v-3.17h-3.16v3.17h-3.17v3.16h3.17v3.17h12.66v-9.5H92.5v3.17zm-47.48 3.16h3.17v3.17h-3.17zm50.65-22.16h3.17v3.17h-3.17zm-6.33-9.49h3.17v3.17h-3.17zm-19 34.82h3.17v3.17h-3.17zm25.33-12.66h3.17v3.17h-3.17zM22.85 43.82h3.17v3.17h-3.17zm44.33-15.83h3.17v3.17h-3.17z"/><path d="M32.35 69.15h3.17v3.17h-3.17zm3.17-3.17h3.17v3.17h-3.17zm12.66-3.16h3.17v3.17h-3.17zm9.5-50.65v3.16h-9.5v6.33h3.17V18.5h3.16v12.66h-3.16v3.17h3.16v3.16h-3.16v-3.16h-3.17v-3.17h-3.16v-3.17h-3.17v3.17h-3.17v3.17h-9.49v3.16h12.66v-3.16h3.17v3.16h3.16v15.83h-3.16v3.17h3.16v3.16h6.33v-3.16h-3.16v-3.17h3.16v3.17h3.17v-3.17h3.16v-3.16h-9.49v-3.17h6.33v-3.17h-6.33v-3.16h9.49v-3.17h6.34v-3.16h-6.34v-3.17h-3.16v-3.17h3.16v3.17h3.17v-6.33h9.5v6.33h-3.17v9.5h3.17v-6.33h3.16V18.5h-3.16v3.16h-6.33V18.5h-3.17v3.16h-6.33V18.5h6.33v-3.17h3.17v-3.16h6.33V9h-9.5v3.17h-3.17V9h-6.33v3.17h3.17z"/><path d="M48.18 9h3.17v3.17h-3.17zM29.19 65.98h3.17v3.17h-3.17zm12.66-22.16h3.17v-6.33h-3.17v6.33zm0-28.49h3.17V9h-3.17v6.33zm0 41.16h3.17v3.17h-3.17z"/><path d="M26.02 69.15v-6.33h12.66v3.17h3.17v-6.33h-3.17v-3.17h3.17v-3.17h-3.17v-3.17h6.33v-3.17H29.18v3.17h3.17v3.17h-3.17v-3.17h-6.33v3.17h-3.17v3.17h3.17v9.5h-3.17v3.17h-3.17v3.17h6.33v3.17h3.17v-3.17h3.17v-3.17h-3.17Zm6.33-12.66v3.17h-3.17v-3.17h3.17Zm12.67 3.16h3.17v3.17h-3.17zm-9.5-18.99h3.17v3.17h-3.17z"/><path d="M263.66 88.8H117.4c-1.27 0-2.31-1.05-2.31-2.35V58.27c0-1.3 1.03-2.35 2.31-2.35h146.27c1.27 0 2.31 1.05 2.31 2.35v28.18c0 1.3-1.03 2.35-2.31 2.35h-.01Z" fill="#07c160"/><path class="h" d="m140.35 79.91-4.24-4.2c1.08-1.33 1.66-3 1.66-4.72 0-4.15-3.38-7.53-7.54-7.53s-7.54 3.38-7.54 7.53 3.38 7.53 7.54 7.53c1.72 0 3.39-0.59 4.72-1.66l4.24 4.2 0.18 0.18 1.15-1.15-0.18-0.18h0.01zm-10.12-3.01c-3.26 0-5.91-2.65-5.91-5.9s2.65-5.9 5.91-5.9 5.91 2.65 5.91 5.9-2.65 5.9-5.91 5.9z"/><text transform="translate(153.26 76.52)" fill="#fff" font-family='MicrosoftYaHeiUI,"Microsoft YaHei UI"' font-size="14" style="isolation:isolate"><tspan x="0" y="0">位元工坊</tspan></text><path class="j" d="m180.46 22.55 1.6.63c-.48 1.7-.97 3.09-1.59 4.58v15.62h-1.67V31.11c-.6.99-1.14 1.8-1.85 2.76l-1.29-1.19c2.1-2.76 3.88-6.28 4.8-10.13Zm8.95-.05c.34.62 1.11 2.05 1.57 2.97h6.03v1.61H182.1v-1.61h6.93c-.44-.8-.85-1.59-1.15-2.09l1.53-.88Zm-5.51 6.53h11.44v1.47H183.9zm0 3.37h11.44v1.49H183.9zm0 3.39v7h11.44v-7H183.9Zm9.72 5.48h-8v-3.94h8v3.94Zm-38.79-13.45 1.36.77c-.42.92-.71 1.5-1.3 2.48v12.29h-1.54v-9.94c-.65.87-1.05 1.38-1.68 2.08l-1.22-1.14c1.59-1.65 3.32-4.24 4.38-6.54Zm-.26-5.25 1.43.82c-1.03 1.85-2.82 4.3-4.39 6.06l-1.22-1.13c1.53-1.67 3.24-3.99 4.18-5.75Zm2.24 8.05h7.28v1.49h-7.28zm1.8-6.47v3.58h1.43V22.5h1.51v5.23h1.44v-3.58h1.49v4.99h-7.29v-4.99h1.42zm6.74 12.41s-1.19 1.13-1.52 1.42v-4.26h-6.36v3.29c0 2.37-.53 3.41-1.53 4.49l1.14 1.06c1.55-1.68 1.88-3.01 1.88-5.23v-2.09h3.36s.06 3.66-.05 4.21l1.02.95s2.42-2.2 3.16-2.82l-1.1-1.03Z"/><path class="j" d="M169.75 36.83c1.08-2.35 1.7-5.58 1.76-9.78h1.04v-1.58h-4.51c.06-.87.04-1.86.04-2.42h-1.45c.02 2.24-.23 4.37-.56 5.87-.36 1.67-.94 3.3-1.59 4.26l1.13 1.01c.32-.51.6-1.02.93-1.75.58 2.12.84 2.7 1.56 4.32-1.03 2.13-2.32 4.01-3.51 5.43l1.22 1.08c.6-.74 1.92-2.51 3.15-4.88.55 1.03 1.7 2.83 3.05 4.85l1.22-1.24c-1.1-1.38-2.61-3.48-3.5-5.18h.02Zm-.9-1.79c-.77-1.87-1.12-2.92-1.59-4.93.23-.78.46-2.03.54-3.06h2.32c-.12 3.41-.55 6.08-1.27 7.99Zm34.31-2.23v-4.17h-2.55v-1.6h2.55v-4.02h1.53v4.02h2.11v1.6h-2.11v3.49l1.8-.8.2 1.64c-.56.24-1.27.53-2 .87v6.6c0 1.67-.49 2.09-2.4 2.09h-1.42l-.31-1.58h1.29c1.09 0 1.31-.22 1.31-1.11v-5.35l-2.71 1.2-.2-1.67c.76-.29 1.82-.73 2.91-1.2Zm8.21-8.84.58 1.38c-1.07.4-2.18.76-2.95.93v1.93h2.73v1.31H209v2.04h3.49v-8.59h1.55v8.59h3.6v-2.04h-2.86v-1.31h2.86v-2.04h-2.91v-1.4h4.42v8.22h-5.11v1.89h4.57v1.33c-1.15 1.51-2.31 2.64-3.78 3.58 1.49.62 3.31 1.04 5.71 1.44l-.47 1.62c-2.93-.58-5.11-1.22-6.91-2.18-1.82.84-4.09 1.53-7.15 2.22l-.51-1.58c2.6-.49 4.55-.95 6.11-1.58-1.2-.84-2.26-1.87-3.33-3.15l.47-.36h-1.42v-1.35h5.15v-1.89h-4.97V25.1c1.09-.22 2.53-.64 3.86-1.13Zm1.85 15.01c1.27-.71 2.29-1.6 3.35-2.75h-6.55c1 1.15 2 2.04 3.2 2.75Zm30.14-7.73v1.89h-18.73v-1.89h18.73Zm7.45 1.56v-4.17h-2.55v-1.6h2.55v-4.02h1.53v4.02h2.11v1.6h-2.11v3.49l1.8-.8.2 1.64c-.56.24-1.27.53-2 .87v6.6c0 1.67-.49 2.09-2.4 2.09h-1.42l-.31-1.58h1.29c1.09 0 1.31-.22 1.31-1.11v-5.35l-2.71 1.2-.2-1.67c.76-.29 1.82-.73 2.91-1.2Zm8.22-8.84.58 1.38c-1.07.4-2.18.76-2.95.93v1.93h2.73v1.31h-2.73v2.04h3.49v-8.59h1.55v8.59h3.6v-2.04h-2.86v-1.31h2.86v-2.04h-2.91v-1.4h4.42v8.22h-5.11v1.89h4.57v1.33c-1.15 1.51-2.31 2.64-3.78 3.58 1.49.62 3.31 1.04 5.71 1.44l-.47 1.62c-2.93-.58-5.11-1.22-6.91-2.18-1.82.84-4.09 1.53-7.15 2.22l-.51-1.58c2.6-.49 4.55-.95 6.11-1.58-1.2-.84-2.26-1.87-3.33-3.15l.47-.36h-1.42v-1.35h5.15v-1.89h-4.97V25.1c1.09-.22 2.53-.64 3.86-1.13Zm1.84 15.01c1.27-.71 2.29-1.6 3.35-2.75h-6.55c1 1.15 2 2.04 3.2 2.75Z"/><path class="h" d="M114.17 30c0 3.04 1.61 5.77 4.12 7.62.2.15.33.39.33.66 0 .09-.02.17-.04.26-.2.76-.52 1.98-.54 2.03-.03.1-.06.2-.06.3 0 .22.18.4.4.4.09 0 .16-.03.23-.07l2.61-1.53c.2-.12.4-.19.63-.19.12 0 .24.02.35.05 1.22.36 2.53.55 3.9.55 6.59 0 11.93-4.51 11.93-10.08s-5.34-10.08-11.93-10.08-11.93 4.51-11.93 10.08"/><path d="M114.17 30c0 3.04 1.61 5.77 4.12 7.62.2.15.33.39.33.66 0 .09-.02.17-.04.26-.2.76-.52 1.98-.54 2.03-.03.1-.06.2-.06.3 0 .22.18.4.4.4.09 0 .16-.03.23-.07l2.61-1.53c.2-.12.4-.19.63-.19.12 0 .24.02.35.05 1.22.36 2.53.55 3.9.55 6.59 0 11.93-4.51 11.93-10.08s-5.34-10.08-11.93-10.08-11.93 4.51-11.93 10.08" fill="url(#b)"/><path d="M127.25 37.48c0 4.64 4.45 8.39 9.94 8.39 1.13 0 2.23-.16 3.24-.46.09-.03.19-.04.29-.04.19 0 .36.06.53.15l2.18 1.27c.06.04.12.06.19.06.18 0 .33-.15.33-.34 0-.08-.03-.17-.05-.25-.01-.05-.28-1.06-.45-1.69-.02-.07-.03-.14-.03-.21 0-.23.11-.42.28-.55 2.1-1.54 3.43-3.82 3.43-6.34 0-4.64-4.45-8.39-9.94-8.39s-9.94 3.76-9.94 8.39" fill="url(#a)"/><path d="M139.28 34.92c0 .75.6 1.35 1.33 1.35s1.33-.6 1.33-1.35-.6-1.35-1.33-1.35-1.33.6-1.33 1.35m-6.65 0c0 .75.6 1.35 1.33 1.35s1.33-.6 1.33-1.35-.6-1.35-1.33-1.35-1.33.6-1.33 1.35" fill="#919191"/><path d="M123.71 26.76c0 .89-.71 1.62-1.6 1.62s-1.6-.72-1.6-1.62.71-1.62 1.6-1.62 1.6.72 1.6 1.62m7.99 0c0 .89-.71 1.62-1.6 1.62s-1.6-.72-1.6-1.62.71-1.62 1.6-1.62 1.6.72 1.6 1.62" fill="#168743"/></svg>