<svg viewBox="0 0 285 110" xmlns="http://www.w3.org/2000/svg"><defs><style>.g{fill:#fff}</style></defs><path d="M0 0h285v110H0z" fill="#07c160"/><rect class="g" x="10.19" y="9" width="91.81" height="91.81" rx="5.15" ry="5.15"/><path d="M41.22 89.43h2.75v-2.75h-2.75v-2.74H52.2v-2.75h-5.49V70.22h-2.74v-2.75h-2.75v5.49h2.75v8.23h-5.49v13.72h2.74v-5.48z"/><path d="M49.45 86.68h2.74v2.74h-2.74zM27.5 29.05h2.74v-8.23h-8.23v8.23h5.49zm10.98-10.97h2.74v2.74h-2.74zM22.01 40.03v2.74h2.75v2.75h2.74v-2.75h2.74v2.75h5.49v-2.75h-2.74v-2.74h-2.75v-2.74H16.52v2.74h5.49z"/><path d="M22.01 34.54h13.72V15.33H16.52v19.21h5.49Zm-2.74-5.49V18.07h13.72v13.72H19.27v-2.74Zm5.49 52.14h-2.75v8.24h8.23v-8.24h-5.48z"/><path d="M35.73 89.43V75.71H16.52v19.21h19.21v-5.49Zm-5.49 2.74H19.26V78.45h13.72v13.72h-2.74ZM19.27 70.22V59.24h-2.75v13.72h2.75v-2.74zm30.18 21.95v-2.74h-2.74v2.74h-2.74v2.74h8.23v-2.74h-2.75zm41.17-54.88h2.74v2.74h-2.74zm2.74 13.72h2.74v2.74h-2.74zm0-10.98h2.74v2.74h-2.74zm0-24.7H76.89v19.21H96.1V15.33h-2.74Zm0 5.49V31.8H79.64V18.08h13.72v2.74Z"/><path d="M85.13 20.82h-2.75v8.23h8.24v-8.23h-5.49zm8.23 46.65h-2.74v2.74h-2.74v2.74h-2.74v-2.74H71.42v5.49h-2.74v-5.49h-2.74v-5.49H63.2v-2.74h5.49v2.74h2.74v2.74h5.49v-2.74h-2.74v-2.74h-2.74v-2.74h8.23v-5.49h2.74v2.74h2.74V51h-8.23v-2.74h2.74v-2.74h5.49v-5.49h-2.74v-2.74h-2.74v2.74h-2.74v-2.74h-2.74v5.49h2.74v2.74h-2.74v-2.74h-2.74v5.49h2.74v2.74h-2.74v-2.74h-2.74v-5.49h-2.74v5.49h-5.49v2.74h5.49v8.23h-2.74V56.5h-2.74v5.49H55v2.74h-2.74v2.74h5.49v-2.74h2.74v2.74h2.74v8.23h-2.74v-5.49h-2.74v2.74h-8.23v5.49h2.74V75.7H55v2.74h-2.74v2.74H55v5.49h2.74v-2.74h2.74v2.74h-2.74v5.49H55v2.74h5.49v-2.74h2.74v-5.49h2.74v-2.74h-2.74v-2.74h2.74v-2.74h2.74v2.74h2.74v5.49h-5.49v2.74h5.49v2.74h5.49v-2.74H74.2v-5.49h10.98v2.74h-8.23v2.74h2.74v5.49h5.49v-2.74h2.74v-2.74h2.74v2.74h2.74v-5.49h-5.49v-2.74h8.23v-2.74h-8.23v-2.74h2.74v-2.74h5.49v-5.49H93.4v-2.74ZM76.9 53.75v2.74h-2.74v-2.74h2.74Zm-8.24 0h2.74v2.74h-2.74v-2.74Zm10.98 27.44h-5.49v-8.23h8.23v8.23h-2.74Z"/><path d="M76.9 75.7h2.74v2.74H76.9zm10.97 16.47h2.74v2.74h-2.74zm5.49-30.19h2.74v2.74h-2.74zM65.92 81.19h2.74v2.74h-2.74zm-43.91-24.7v-2.74h-2.74v-2.74h5.49v-5.49h-2.75v-2.75h-2.74v5.49h-2.75v8.23h5.49zm65.86-2.74v2.74h2.75v-8.23h-5.49v2.75h2.74v2.74zM32.99 70.22h2.74v2.74h-2.74zm5.49 5.48v2.75h2.74v-5.49h-2.74v2.74zM22.01 56.49h2.74v2.74h-2.74zM43.97 31.8v-5.49h2.74v-2.75h-8.23v2.75h2.74v2.74h-2.74v5.49h2.74V31.8h2.75zm5.48 2.74h2.75v-5.49h-5.49v2.75h2.74v2.74zm19.21-13.72h2.74v2.74h-2.74zm19.21 41.16h-5.49v-2.74h-2.74v2.74H76.9v2.75h2.74v2.74h10.98v-8.23h-2.75v2.74zm-41.16 2.75h2.74v2.74h-2.74zm43.91-19.21h2.74v2.74h-2.74zm-5.49-8.23h2.74v2.74h-2.74zM68.66 67.47h2.74v2.74h-2.74zm21.96-10.98h2.74v2.74h-2.74zM27.5 45.52h2.74v2.74H27.5zM65.92 31.8h2.74v2.74h-2.74zM35.73 67.47h2.74v2.74h-2.74zm2.75-2.74h2.74v2.74h-2.74zm10.97-2.75h2.74v2.74h-2.74z"/><path d="M57.69 18.08v2.74h-8.24v5.49h2.75v-2.75h2.74v10.98H52.2v2.75h2.74v2.74H52.2v-2.74h-2.75v-2.75h-2.74V31.8h-2.74v2.74h-2.75v2.75h-8.23v2.74h10.98v-2.74h2.74v2.74h2.74v13.72h-2.74v2.74h2.74v2.75h5.49v-2.75H52.2v-2.74h2.74v2.74h2.75v-2.74h2.74v-2.74H52.2v-2.75h5.49v-2.74H52.2v-2.75h8.23v-2.74h5.49v-2.74h-5.49v-2.75h-2.74V31.8h2.74v2.74h2.74v-5.49h8.24v5.49h-2.75v8.23h2.75v-5.48h2.74V23.56h-2.74v2.75h-5.49v-2.75h-2.75v2.75h-5.48v-2.75h5.48v-2.74h2.75v-2.74h5.49v-2.75h-8.24v2.75h-2.74v-2.75h-5.49v2.75h2.75zm-8.24-2.75h2.74v2.74h-2.74zm-16.46 49.4h2.74v2.74h-2.74z"/><path d="m43.97 45.52h2.74v-5.49h-2.74v5.49zm0-24.7h2.74v-5.49h-2.74v5.49zm0 35.67h2.74v2.74h-2.74z"/><path d="M30.24 67.47v-5.49h10.98v2.74h2.74v-5.49h-2.74v-2.74h2.74v-2.74h-2.74v-2.74h5.49v-2.74H32.99v2.74h2.74v2.74h-2.74v-2.74H27.5v2.74h-2.74v2.74h2.74v8.23h-2.74v2.74h-2.74v2.74h5.49v2.74h2.74V70.2h2.74v-2.74h-2.74Zm5.49-10.98v2.74h-2.74v-2.74h2.74Zm10.98 2.75h2.74v2.74h-2.74zm-8.23-16.47h2.74v2.74h-2.74z"/><path class="g" d="M263.66 88.8H117.4c-1.27 0-2.31-1.05-2.31-2.35V58.27c0-1.3 1.03-2.35 2.31-2.35h146.27c1.27 0 2.31 1.05 2.31 2.35v28.18c0 1.3-1.03 2.35-2.31 2.35h-.01Z"/><path d="m140.35 79.91-4.24-4.2c1.08-1.33 1.66-3 1.66-4.72 0-4.15-3.38-7.53-7.54-7.53s-7.54 3.38-7.54 7.53 3.38 7.53 7.54 7.53c1.72 0 3.39-0.59 4.72-1.66l4.24 4.2 0.18 0.18 1.15-1.15-0.18-0.18h0.01zm-10.12-3.01c-3.26 0-5.91-2.65-5.91-5.9s2.65-5.9 5.91-5.9 5.91 2.65 5.91 5.9-2.65 5.9-5.91 5.9z" fill="gray"/><text transform="translate(153.26 76.52)" font-family='MicrosoftYaHeiUI,"Microsoft YaHei UI"' font-size="14" style="isolation:isolate"><tspan x="0" y="0">位元工坊</tspan></text><path class="g" d="m180.46 22.55 1.6.63c-.48 1.7-.97 3.09-1.59 4.58v15.62h-1.67V31.11c-.6.99-1.14 1.8-1.85 2.76l-1.29-1.19c2.1-2.76 3.88-6.28 4.8-10.13Zm8.95-.05c.34.62 1.11 2.05 1.57 2.97h6.03v1.61H182.1v-1.61h6.93c-.44-.8-.85-1.59-1.15-2.09l1.53-.88Zm-5.51 6.53h11.44v1.47H183.9zm0 3.37h11.44v1.49H183.9zm0 3.39v7h11.44v-7H183.9Zm9.72 5.48h-8v-3.94h8v3.94Zm-38.79-13.45 1.36.77c-.42.92-.71 1.5-1.3 2.48v12.29h-1.54v-9.94c-.65.87-1.05 1.38-1.68 2.08l-1.22-1.14c1.59-1.65 3.32-4.24 4.38-6.54Zm-.26-5.25 1.43.82c-1.03 1.85-2.82 4.3-4.39 6.06l-1.22-1.13c1.53-1.67 3.24-3.99 4.18-5.75Zm2.24 8.05h7.28v1.49h-7.28zm1.8-6.47v3.58h1.43V22.5h1.51v5.23h1.44v-3.58h1.49v4.99h-7.29v-4.99h1.42zm6.74 12.41s-1.19 1.13-1.52 1.42v-4.26h-6.36v3.29c0 2.37-.53 3.41-1.53 4.49l1.14 1.06c1.55-1.68 1.88-3.01 1.88-5.23v-2.09h3.36s.06 3.66-.05 4.21l1.02.95s2.42-2.2 3.16-2.82l-1.1-1.03Z"/><path class="g" d="M169.75 36.83c1.08-2.35 1.7-5.58 1.76-9.78h1.04v-1.58h-4.51c.06-.87.04-1.86.04-2.42h-1.45c.02 2.24-.23 4.37-.56 5.87-.36 1.67-.94 3.3-1.59 4.26l1.13 1.01c.32-.51.6-1.02.93-1.75.58 2.12.84 2.7 1.56 4.32-1.03 2.13-2.32 4.01-3.51 5.43l1.22 1.08c.6-.74 1.92-2.51 3.15-4.88.55 1.03 1.7 2.83 3.05 4.85l1.22-1.24c-1.1-1.38-2.61-3.48-3.5-5.18h.02Zm-.9-1.79c-.77-1.87-1.12-2.92-1.59-4.93.23-.78.46-2.03.54-3.06h2.32c-.12 3.41-.55 6.08-1.27 7.99Zm34.31-2.23v-4.17h-2.55v-1.6h2.55v-4.02h1.53v4.02h2.11v1.6h-2.11v3.49l1.8-.8.2 1.64c-.56.24-1.27.53-2 .87v6.6c0 1.67-.49 2.09-2.4 2.09h-1.42l-.31-1.58h1.29c1.09 0 1.31-.22 1.31-1.11v-5.35l-2.71 1.2-.2-1.67c.76-.29 1.82-.73 2.91-1.2Zm8.21-8.84.58 1.38c-1.07.4-2.18.76-2.95.93v1.93h2.73v1.31H209v2.04h3.49v-8.59h1.55v8.59h3.6v-2.04h-2.86v-1.31h2.86v-2.04h-2.91v-1.4h4.42v8.22h-5.11v1.89h4.57v1.33c-1.15 1.51-2.31 2.64-3.78 3.58 1.49.62 3.31 1.04 5.71 1.44l-.47 1.62c-2.93-.58-5.11-1.22-6.91-2.18-1.82.84-4.09 1.53-7.15 2.22l-.51-1.58c2.6-.49 4.55-.95 6.11-1.58-1.2-.84-2.26-1.87-3.33-3.15l.47-.36h-1.42v-1.35h5.15v-1.89h-4.97V25.1c1.09-.22 2.53-.64 3.86-1.13Zm1.85 15.01c1.27-.71 2.29-1.6 3.35-2.75h-6.55c1 1.15 2 2.04 3.2 2.75Zm30.14-7.73v1.89h-18.73v-1.89h18.73Zm7.45 1.56v-4.17h-2.55v-1.6h2.55v-4.02h1.53v4.02h2.11v1.6h-2.11v3.49l1.8-.8.2 1.64c-.56.24-1.27.53-2 .87v6.6c0 1.67-.49 2.09-2.4 2.09h-1.42l-.31-1.58h1.29c1.09 0 1.31-.22 1.31-1.11v-5.35l-2.71 1.2-.2-1.67c.76-.29 1.82-.73 2.91-1.2Zm8.22-8.84.58 1.38c-1.07.4-2.18.76-2.95.93v1.93h2.73v1.31h-2.73v2.04h3.49v-8.59h1.55v8.59h3.6v-2.04h-2.86v-1.31h2.86v-2.04h-2.91v-1.4h4.42v8.22h-5.11v1.89h4.57v1.33c-1.15 1.51-2.31 2.64-3.78 3.58 1.49.62 3.31 1.04 5.71 1.44l-.47 1.62c-2.93-.58-5.11-1.22-6.91-2.18-1.82.84-4.09 1.53-7.15 2.22l-.51-1.58c2.6-.49 4.55-.95 6.11-1.58-1.2-.84-2.26-1.87-3.33-3.15l.47-.36h-1.42v-1.35h5.15v-1.89h-4.97V25.1c1.09-.22 2.53-.64 3.86-1.13Zm1.84 15.01c1.27-.71 2.29-1.6 3.35-2.75h-6.55c1 1.15 2 2.04 3.2 2.75Z"/><path class="g" d="M130.11 28.16c-.78 0-1.42-.63-1.42-1.43s.63-1.43 1.42-1.43 1.42.63 1.42 1.43-.63 1.43-1.42 1.43m-7.97 0c-.78 0-1.42-.63-1.42-1.43s.63-1.43 1.42-1.43 1.42.63 1.42 1.43-.63 1.43-1.42 1.43m3.98-8.25c-6.6 0-11.95 4.49-11.95 10.04 0 3.03 1.61 5.75 4.13 7.59.2.14.33.38.33.65 0 .09-.02.17-.04.25-.2.75-.52 1.97-.54 2.02-.03.09-.06.19-.06.29 0 .22.18.4.4.4.09 0 .16-.03.23-.07l2.61-1.52c.2-.11.4-.18.63-.18.12 0 .24.02.35.05 1.22.35 2.53.55 3.9.55.22 0 .44 0 .65-.02-.26-.78-.4-1.61-.4-2.46 0-5.06 4.87-9.16 10.89-9.16.22 0 .27 0 .49.02-.9-4.79-5.68-8.46-11.64-8.46"/><path class="g" d="M140.59 36.08c-.68 0-1.25-.56-1.25-1.26s.55-1.26 1.25-1.26 1.25.56 1.25 1.26-.55 1.26-1.25 1.26m-6.63 0c-.68 0-1.25-.56-1.25-1.26s.55-1.26 1.25-1.26 1.25.56 1.25 1.26-.55 1.26-1.25 1.26m9.83 7.75c2.1-1.54 3.44-3.8 3.44-6.32 0-4.62-4.46-8.36-9.96-8.36s-9.96 3.74-9.96 8.36 4.46 8.36 9.96 8.36c1.14 0 2.23-.16 3.25-.46.09-.03.19-.04.29-.04.19 0 .36.06.53.15l2.18 1.27c.06.03.12.06.19.06.18 0 .33-.15.33-.33 0-.08-.03-.16-.05-.24-.01-.05-.28-1.06-.45-1.69-.02-.07-.03-.14-.03-.21 0-.22.11-.42.28-.54"/></svg>